<?xml version="1.0" encoding="UTF-8" standalone="no"?>
<svg
   xmlns:dc="http://purl.org/dc/elements/1.1/"
   xmlns:cc="http://creativecommons.org/ns#"
   xmlns:rdf="http://www.w3.org/1999/02/22-rdf-syntax-ns#"
   xmlns:svg="http://www.w3.org/2000/svg"
   xmlns="http://www.w3.org/2000/svg"
   xmlns:sodipodi="http://sodipodi.sourceforge.net/DTD/sodipodi-0.dtd"
   xmlns:inkscape="http://www.inkscape.org/namespaces/inkscape"
   id="svg8"
   version="1.1"
   viewBox="0 0 210 297"
   height="297mm"
   width="210mm"
   sodipodi:docname="Box.svg"
   inkscape:version="1.0.2 (e86c870879, 2021-01-15, custom)">
  <defs
     id="defs2">
    <inkscape:perspective
       sodipodi:type="inkscape:persp3d"
       inkscape:vp_x="0 : 148.5 : 1"
       inkscape:vp_y="0 : 1000 : 0"
       inkscape:vp_z="210 : 148.5 : 1"
       inkscape:persp3d-origin="105 : 99 : 1"
       id="perspective162" />
  </defs>
  <sodipodi:namedview
     id="base"
     pagecolor="#ffffff"
     bordercolor="#666666"
     borderopacity="1.0"
     inkscape:pageopacity="0.0"
     inkscape:pageshadow="2"
     inkscape:zoom="1.4"
     inkscape:cx="340.00208"
     inkscape:cy="514.88958"
     inkscape:document-units="mm"
     inkscape:current-layer="layer1"
     inkscape:document-rotation="0"
     showgrid="false"
     inkscape:window-width="1366"
     inkscape:window-height="705"
     inkscape:window-x="-8"
     inkscape:window-y="-8"
     inkscape:window-maximized="1" />
  <metadata
     id="metadata5">
    <rdf:RDF>
      <cc:Work
         rdf:about="">
        <dc:format>image/svg+xml</dc:format>
        <dc:type
           rdf:resource="http://purl.org/dc/dcmitype/StillImage" />
        <dc:title />
      </cc:Work>
    </rdf:RDF>
  </metadata>
  <g
     inkscape:label="Layer 1"
     inkscape:groupmode="layer"
     id="layer1">
    <g
       id="panel5360">
      <path
         style="fill:none;stroke:#000000;stroke-width:1"
         d="M 33.4 104 L 47.355 104 L 47.355 100.8 L 57.645 100.8 L 57.645 104 L 71.455 104 L 71.455 100.8 L 81.745 100.8 L 81.745 104 L 95.555 104 L 95.555 100.8 L 105.845 100.8 L 105.845 104 L 119.8 104"
         id="path2258" />
      <path
         style="fill:none;stroke:#000000;stroke-width:1"
         d="M 119.8 104 L 119.8 111.645 L 116.6 111.645 L 116.6 121.355 L 119.8 121.355 L 119.8 129"
         id="path2260" />
      <path
         style="fill:none;stroke:#000000;stroke-width:1"
         d="M 119.8 129 L 105.845 129 L 105.845 129 L 95.555 129 L 95.555 129 L 81.745 129 L 81.745 129 L 71.455 129 L 71.455 129 L 57.645 129 L 57.645 129 L 47.355 129 L 47.355 129 L 33.4 129"
         id="path2262" />
      <path
         style="fill:none;stroke:#000000;stroke-width:1"
         d="M 33.4 129 L 33.4 121.355 L 36.6 121.355 L 36.6 111.645 L 33.4 111.645 L 33.4 104"
         id="path2264" />
    </g>
    <g
       id="panel8718">
      <path
         style="fill:none;stroke:#000000;stroke-width:1"
         d="M 33.4 33.4 L 47.645 33.4 L 47.645 36.6 L 57.355 36.6 L 57.355 33.4 L 71.745 33.4 L 71.745 36.6 L 81.455 36.6 L 81.455 33.4 L 95.845 33.4 L 95.845 36.6 L 105.555 36.6 L 105.555 33.4 L 119.8 33.4"
         id="path2276" />
      <path
         style="fill:none;stroke:#000000;stroke-width:1"
         d="M 119.8 33.4 L 119.8 49.0117 L 116.6 49.0117 L 116.6 58.7217 L 119.8 58.7217 L 119.8 74.4783 L 116.6 74.4783 L 116.6 84.1883 L 119.8 84.1883 L 119.8 99.8"
         id="path2278" />
      <path
         style="fill:none;stroke:#000000;stroke-width:1"
         d="M 119.8 99.8 L 105.555 99.8 L 105.555 96.6 L 95.845 96.6 L 95.845 99.8 L 81.455 99.8 L 81.455 96.6 L 71.745 96.6 L 71.745 99.8 L 57.355 99.8 L 57.355 96.6 L 47.645 96.6 L 47.645 99.8 L 33.4 99.8"
         id="path2280" />
      <path
         style="fill:none;stroke:#000000;stroke-width:1"
         d="M 33.4 99.8 L 33.4 84.1883 L 36.6 84.1883 L 36.6 74.4783 L 33.4 74.4783 L 33.4 58.7217 L 36.6 58.7217 L 36.6 49.0117 L 33.4 49.0117 L 33.4 33.4"
         id="path2282" />
    </g>
    <g
       id="panel1538">
      <path
         style="fill:none;stroke:#000000;stroke-width:1"
         d="M 33.4 4.2 L 47.355 4.2 L 47.355 4.2 L 57.645 4.2 L 57.645 4.2 L 71.455 4.2 L 71.455 4.2 L 81.745 4.2 L 81.745 4.2 L 95.555 4.2 L 95.555 4.2 L 105.845 4.2 L 105.845 4.2 L 119.8 4.2"
         id="path2294" />
      <path
         style="fill:none;stroke:#000000;stroke-width:1"
         d="M 119.8 4.2 L 119.8 11.845 L 116.6 11.845 L 116.6 21.555 L 119.8 21.555 L 119.8 29.2"
         id="path2296" />
      <path
         style="fill:none;stroke:#000000;stroke-width:1"
         d="M 119.8 29.2 L 105.845 29.2 L 105.845 32.4 L 95.555 32.4 L 95.555 29.2 L 81.745 29.2 L 81.745 32.4 L 71.455 32.4 L 71.455 29.2 L 57.645 29.2 L 57.645 32.4 L 47.355 32.4 L 47.355 29.2 L 33.4 29.2"
         id="path2298" />
      <path
         style="fill:none;stroke:#000000;stroke-width:1"
         d="M 33.4 29.2 L 33.4 21.555 L 36.6 21.555 L 36.6 11.845 L 33.4 11.845 L 33.4 4.2"
         id="path2300" />
    </g>
    <g
       id="panel7209">
      <path
         style="fill:none;stroke:#000000;stroke-width:1"
         d="M 33.4 104 L 47.355 104 L 47.355 100.8 L 57.645 100.8 L 57.645 104 L 71.455 104 L 71.455 100.8 L 81.745 100.8 L 81.745 104 L 95.555 104 L 95.555 100.8 L 105.845 100.8 L 105.845 104 L 119.8 104"
         id="path2358" />
      <path
         style="fill:none;stroke:#000000;stroke-width:1"
         d="M 119.8 104 L 119.8 111.645 L 116.6 111.645 L 116.6 121.355 L 119.8 121.355 L 119.8 129"
         id="path2360" />
      <path
         style="fill:none;stroke:#000000;stroke-width:1"
         d="M 119.8 129 L 105.845 129 L 105.845 129 L 95.555 129 L 95.555 129 L 81.745 129 L 81.745 129 L 71.455 129 L 71.455 129 L 57.645 129 L 57.645 129 L 47.355 129 L 47.355 129 L 33.4 129"
         id="path2362" />
      <path
         style="fill:none;stroke:#000000;stroke-width:1"
         d="M 33.4 129 L 33.4 121.355 L 36.6 121.355 L 36.6 111.645 L 33.4 111.645 L 33.4 104"
         id="path2364" />
    </g>
    <g
       id="panel23">
      <path
         style="fill:none;stroke:#000000;stroke-width:1"
         d="M 33.4 33.4 L 47.645 33.4 L 47.645 36.6 L 57.355 36.6 L 57.355 33.4 L 71.745 33.4 L 71.745 36.6 L 81.455 36.6 L 81.455 33.4 L 95.845 33.4 L 95.845 36.6 L 105.555 36.6 L 105.555 33.4 L 119.8 33.4"
         id="path2376" />
      <path
         style="fill:none;stroke:#000000;stroke-width:1"
         d="M 119.8 33.4 L 119.8 49.0117 L 116.6 49.0117 L 116.6 58.7217 L 119.8 58.7217 L 119.8 74.4783 L 116.6 74.4783 L 116.6 84.1883 L 119.8 84.1883 L 119.8 99.8"
         id="path2378" />
      <path
         style="fill:none;stroke:#000000;stroke-width:1"
         d="M 119.8 99.8 L 105.555 99.8 L 105.555 96.6 L 95.845 96.6 L 95.845 99.8 L 81.455 99.8 L 81.455 96.6 L 71.745 96.6 L 71.745 99.8 L 57.355 99.8 L 57.355 96.6 L 47.645 96.6 L 47.645 99.8 L 33.4 99.8"
         id="path2380" />
      <path
         style="fill:none;stroke:#000000;stroke-width:1"
         d="M 33.4 99.8 L 33.4 84.1883 L 36.6 84.1883 L 36.6 74.4783 L 33.4 74.4783 L 33.4 58.7217 L 36.6 58.7217 L 36.6 49.0117 L 33.4 49.0117 L 33.4 33.4"
         id="path2382" />
    </g>
    <g
       id="panel6211">
      <path
         style="fill:none;stroke:#000000;stroke-width:1"
         d="M 33.4 4.2 L 47.355 4.2 L 47.355 4.2 L 57.645 4.2 L 57.645 4.2 L 71.455 4.2 L 71.455 4.2 L 81.745 4.2 L 81.745 4.2 L 95.555 4.2 L 95.555 4.2 L 105.845 4.2 L 105.845 4.2 L 119.8 4.2"
         id="path2394" />
      <path
         style="fill:none;stroke:#000000;stroke-width:1"
         d="M 119.8 4.2 L 119.8 11.845 L 116.6 11.845 L 116.6 21.555 L 119.8 21.555 L 119.8 29.2"
         id="path2396" />
      <path
         style="fill:none;stroke:#000000;stroke-width:1"
         d="M 119.8 29.2 L 105.845 29.2 L 105.845 32.4 L 95.555 32.4 L 95.555 29.2 L 81.745 29.2 L 81.745 32.4 L 71.455 32.4 L 71.455 29.2 L 57.645 29.2 L 57.645 32.4 L 47.355 32.4 L 47.355 29.2 L 33.4 29.2"
         id="path2398" />
      <path
         style="fill:none;stroke:#000000;stroke-width:1"
         d="M 33.4 29.2 L 33.4 21.555 L 36.6 21.555 L 36.6 11.845 L 33.4 11.845 L 33.4 4.2"
         id="path2400" />
    </g>
    <g
       id="panel5127">
      <path
         style="fill:none;stroke:#000000;stroke-width:1"
         d="M 33.4 104 L 47.355 104 L 47.355 100.8 L 57.645 100.8 L 57.645 104 L 71.455 104 L 71.455 100.8 L 81.745 100.8 L 81.745 104 L 95.555 104 L 95.555 100.8 L 105.845 100.8 L 105.845 104 L 119.8 104"
         id="path2483" />
      <path
         style="fill:none;stroke:#000000;stroke-width:1"
         d="M 119.8 104 L 119.8 111.645 L 116.6 111.645 L 116.6 121.355 L 119.8 121.355 L 119.8 129"
         id="path2485" />
      <path
         style="fill:none;stroke:#000000;stroke-width:1"
         d="M 119.8 129 L 105.845 129 L 105.845 129 L 95.555 129 L 95.555 129 L 81.745 129 L 81.745 129 L 71.455 129 L 71.455 129 L 57.645 129 L 57.645 129 L 47.355 129 L 47.355 129 L 33.4 129"
         id="path2487" />
      <path
         style="fill:none;stroke:#000000;stroke-width:1"
         d="M 33.4 129 L 33.4 121.355 L 36.6 121.355 L 36.6 111.645 L 33.4 111.645 L 33.4 104"
         id="path2489" />
    </g>
    <g
       id="panel5491">
      <path
         style="fill:none;stroke:#000000;stroke-width:1"
         d="M 33.4 33.4 L 47.645 33.4 L 47.645 36.6 L 57.355 36.6 L 57.355 33.4 L 71.745 33.4 L 71.745 36.6 L 81.455 36.6 L 81.455 33.4 L 95.845 33.4 L 95.845 36.6 L 105.555 36.6 L 105.555 33.4 L 119.8 33.4"
         id="path2501" />
      <path
         style="fill:none;stroke:#000000;stroke-width:1"
         d="M 119.8 33.4 L 119.8 49.0117 L 116.6 49.0117 L 116.6 58.7217 L 119.8 58.7217 L 119.8 74.4783 L 116.6 74.4783 L 116.6 84.1883 L 119.8 84.1883 L 119.8 99.8"
         id="path2503" />
      <path
         style="fill:none;stroke:#000000;stroke-width:1"
         d="M 119.8 99.8 L 105.555 99.8 L 105.555 96.6 L 95.845 96.6 L 95.845 99.8 L 81.455 99.8 L 81.455 96.6 L 71.745 96.6 L 71.745 99.8 L 57.355 99.8 L 57.355 96.6 L 47.645 96.6 L 47.645 99.8 L 33.4 99.8"
         id="path2505" />
      <path
         style="fill:none;stroke:#000000;stroke-width:1"
         d="M 33.4 99.8 L 33.4 84.1883 L 36.6 84.1883 L 36.6 74.4783 L 33.4 74.4783 L 33.4 58.7217 L 36.6 58.7217 L 36.6 49.0117 L 33.4 49.0117 L 33.4 33.4"
         id="path2507" />
    </g>
    <g
       id="panel614">
      <path
         style="fill:none;stroke:#000000;stroke-width:1"
         d="M 33.4 4.2 L 47.355 4.2 L 47.355 4.2 L 57.645 4.2 L 57.645 4.2 L 71.455 4.2 L 71.455 4.2 L 81.745 4.2 L 81.745 4.2 L 95.555 4.2 L 95.555 4.2 L 105.845 4.2 L 105.845 4.2 L 119.8 4.2"
         id="path2519" />
      <path
         style="fill:none;stroke:#000000;stroke-width:1"
         d="M 119.8 4.2 L 119.8 11.845 L 116.6 11.845 L 116.6 21.555 L 119.8 21.555 L 119.8 29.2"
         id="path2521" />
      <path
         style="fill:none;stroke:#000000;stroke-width:1"
         d="M 119.8 29.2 L 105.845 29.2 L 105.845 32.4 L 95.555 32.4 L 95.555 29.2 L 81.745 29.2 L 81.745 32.4 L 71.455 32.4 L 71.455 29.2 L 57.645 29.2 L 57.645 32.4 L 47.355 32.4 L 47.355 29.2 L 33.4 29.2"
         id="path2523" />
      <path
         style="fill:none;stroke:#000000;stroke-width:1"
         d="M 33.4 29.2 L 33.4 21.555 L 36.6 21.555 L 36.6 11.845 L 33.4 11.845 L 33.4 4.2"
         id="path2525" />
    </g>
    <g
       id="g3435"
       transform="translate(-19.276786,-16.819941)">
      <path
         style="fill:none;stroke:#000000;stroke-width:1.06154"
         d="m 150.45968,32.858226 h 8.29354 v -3.197912 h 11.60307 v 3.197912 h 8.29354"
         id="path2285" />
      <g
         id="g3425"
         transform="translate(0.02336,-0.019575)">
        <g
           id="g3417">
          <g
             id="g3400">
            <path
               style="fill:none;stroke:#000000;stroke-width:1.06154"
               d="m 178.62647,32.877801 v 12.11379 0 10.283286 0 15.166698 0 10.283286 0 12.11379"
               id="path2287" />
            <path
               style="fill:none;stroke:#000000;stroke-width:1.06154"
               d="m 178.62647,92.838651 h -8.29354 v 3.197912 h -11.60307 v -3.197912 h -8.29354"
               id="path2289" />
            <path
               style="fill:none;stroke:#000000;stroke-width:1"
               d="m 150.45968,92.858226 v -12.1217 h -3.2 v -10.29 h 3.2 v -15.1766 h -3.2 v -10.29 h 3.2 v -12.1217"
               id="path2291" />
            <rect
               style="fill:none;stroke:#000000;stroke-width:0.186038;stroke-miterlimit:4;stroke-dasharray:none;stroke-opacity:1"
               id="rect2555"
               width="3.013962"
               height="44.212994"
               x="173.46852"
               y="40.597301" />
          </g>
        </g>
      </g>
    </g>
    <g
       id="g1022"
       transform="translate(-9.4494048,-14.741071)">
      <g
         id="g3453"
         transform="translate(-3.8031219,72.153547)">
        <path
           style="fill:none;stroke:#000000;stroke-width:1.06154"
           d="m 150.45968,32.858226 h 8.29354 v -3.197912 h 11.60307 v 3.197912 h 8.29354"
           id="path3437" />
        <g
           id="g3451"
           transform="translate(0.02336,-0.019575)">
          <g
             id="g3449">
            <g
               id="g3447">
              <path
                 style="fill:none;stroke:#000000;stroke-width:1.06154"
                 d="m 178.62647,32.877801 v 12.11379 0 10.283286 0 15.166698 0 10.283286 0 12.11379"
                 id="path3439" />
              <path
                 style="fill:none;stroke:#000000;stroke-width:1.06154"
                 d="m 178.62647,92.838651 h -8.29354 v 3.197912 h -11.60307 v -3.197912 h -8.29354"
                 id="path3441" />
              <path
                 style="fill:none;stroke:#000000;stroke-width:1"
                 d="m 150.45968,92.858226 v -12.1217 h -3.2 v -10.29 h 3.2 v -15.1766 h -3.2 v -10.29 h 3.2 v -12.1217"
                 id="path3443" />
              <rect
                 style="fill:none;stroke:#000000;stroke-width:0.186038;stroke-miterlimit:4;stroke-dasharray:none;stroke-opacity:1"
                 id="rect3445"
                 width="3.013962"
                 height="44.212994"
                 x="173.46852"
                 y="40.597301" />
            </g>
          </g>
        </g>
      </g>
      <rect
         style="fill:none;stroke:#000000;stroke-width:0.2;stroke-miterlimit:4;stroke-dasharray:none;stroke-opacity:1"
         id="rect3455"
         width="12.799999"
         height="12.3"
         x="149.67857"
         y="116.50052" />
      <rect
         style="fill:none;stroke:#000000;stroke-width:0.2;stroke-miterlimit:4;stroke-dasharray:none;stroke-opacity:1"
         id="rect3457"
         width="11.8"
         height="9.8000002"
         x="149.76584"
         y="146.52309" />
    </g>
    <g
       aria-label="Dómald"
       id="text1026"
       style="font-style:normal;font-weight:normal;font-size:10.5833px;line-height:1.25;font-family:sans-serif;fill:none;fill-opacity:1;stroke:#0000ff;stroke-width:0.265;stroke-miterlimit:4;stroke-dasharray:none;stroke-opacity:1">
      <path
         d="m 57.049277,65.708068 q 0,1.049029 -0.459919,1.901687 -0.454751,0.852658 -1.214392,1.322912 -0.527098,0.325561 -1.178219,0.470255 -0.645953,0.144693 -1.705317,0.144693 h -1.943027 v -7.694596 h 1.922357 q 1.126542,0 1.787999,0.165364 0.666624,0.160196 1.126542,0.444416 0.78548,0.490924 1.224728,1.307409 0.439248,0.816485 0.439248,1.93786 z m -1.069699,-0.0155 q 0,-0.904334 -0.315225,-1.524449 Q 55.349128,63.548 54.723845,63.191434 54.269094,62.933053 53.757499,62.834868 53.245904,62.731515 52.532771,62.731515 h -0.961178 v 5.937603 h 0.961178 q 0.738971,0 1.286739,-0.10852 0.552936,-0.10852 1.012855,-0.403075 0.573607,-0.366901 0.857826,-0.966346 0.289387,-0.599444 0.289387,-1.498612 z"
         style="fill:none;stroke:#0000ff;stroke-width:0.265;stroke-miterlimit:4;stroke-dasharray:none;stroke-opacity:1"
         id="path1064" />
      <path
         d="m 63.544984,66.664079 q 0,1.410762 -0.723468,2.227247 -0.723467,0.816485 -1.93786,0.816485 -1.224727,0 -1.948195,-0.816485 -0.7183,-0.816485 -0.7183,-2.227247 0,-1.410762 0.7183,-2.227247 0.723468,-0.821652 1.948195,-0.821652 1.214393,0 1.93786,0.821652 0.723468,0.816485 0.723468,2.227247 z m -1.002519,0 q 0,-1.121375 -0.439249,-1.663976 -0.439248,-0.547768 -1.21956,-0.547768 -0.790646,0 -1.229895,0.547768 -0.43408,0.542601 -0.43408,1.663976 0,1.085202 0.439248,1.648473 0.439248,0.558104 1.224727,0.558104 0.775144,0 1.214393,-0.552936 0.444416,-0.558104 0.444416,-1.653641 z m -0.05168,-5.777406 -1.410762,1.932692 H 60.31005 l 0.925005,-1.932692 z"
         style="fill:none;stroke:#0000ff;stroke-width:0.265;stroke-miterlimit:4;stroke-dasharray:none;stroke-opacity:1"
         id="path1066" />
      <path
         d="m 73.471995,69.547615 h -0.971514 v -3.286611 q 0,-0.372069 -0.03617,-0.7183 -0.03101,-0.346231 -0.139526,-0.552936 -0.118856,-0.222208 -0.341063,-0.335896 -0.222208,-0.113687 -0.640786,-0.113687 -0.408243,0 -0.816485,0.206705 -0.408243,0.201537 -0.816485,0.516762 0.0155,0.118856 0.02584,0.279052 0.01034,0.155029 0.01034,0.310058 v 3.694853 h -0.971514 v -3.286611 q 0,-0.382404 -0.03617,-0.723467 -0.03101,-0.346231 -0.139526,-0.552936 -0.118855,-0.222208 -0.341063,-0.330729 -0.222208,-0.113687 -0.640786,-0.113687 -0.397907,0 -0.800982,0.19637 -0.397907,0.196369 -0.795815,0.501259 v 4.309801 h -0.971514 v -5.772239 h 0.971514 v 0.640786 q 0.454751,-0.377237 0.904335,-0.58911 0.454751,-0.211872 0.966346,-0.211872 0.58911,0 0.997352,0.248046 0.41341,0.248046 0.614948,0.687294 0.589109,-0.496092 1.074866,-0.713133 0.485757,-0.222207 1.038693,-0.222207 0.950843,0 1.400427,0.578774 0.454751,0.573606 0.454751,1.607132 z"
         style="fill:none;stroke:#0000ff;stroke-width:0.265;stroke-miterlimit:4;stroke-dasharray:none;stroke-opacity:1"
         id="path1068" />
      <path
         d="M 79.828176,69.547615 H 78.86183 v -0.614948 q -0.129191,0.08785 -0.351398,0.248047 -0.217041,0.155028 -0.423746,0.248046 -0.242878,0.118855 -0.558104,0.196369 -0.315225,0.08268 -0.73897,0.08268 -0.780312,0 -1.322913,-0.516762 -0.5426,-0.516763 -0.5426,-1.317745 0,-0.656289 0.279051,-1.059364 0.28422,-0.408242 0.80615,-0.640785 0.527098,-0.232543 1.266069,-0.315225 0.73897,-0.08268 1.586461,-0.124024 v -0.149861 q 0,-0.330728 -0.118855,-0.547768 -0.113688,-0.21704 -0.330728,-0.341063 -0.206705,-0.118856 -0.496093,-0.160197 -0.289387,-0.04134 -0.604612,-0.04134 -0.382404,0 -0.852658,0.103353 -0.470254,0.09819 -0.971514,0.289387 h -0.05168 v -0.987017 q 0.284219,-0.07751 0.821652,-0.170532 0.537433,-0.09302 1.059364,-0.09302 0.60978,0 1.059363,0.103353 0.454751,0.09818 0.785479,0.341063 0.325561,0.237711 0.496093,0.614948 0.170531,0.377236 0.170531,0.93534 z M 78.86183,68.126518 v -1.607132 q -0.444416,0.02584 -1.049028,0.07751 -0.599445,0.05168 -0.950843,0.149861 -0.418578,0.118856 -0.67696,0.372069 -0.258381,0.248047 -0.258381,0.687295 0,0.496092 0.299722,0.749306 0.299723,0.248046 0.91467,0.248046 0.511595,0 0.935341,-0.19637 0.423745,-0.201537 0.785479,-0.480589 z"
         style="fill:none;stroke:#0000ff;stroke-width:0.265;stroke-miterlimit:4;stroke-dasharray:none;stroke-opacity:1"
         id="path1070" />
      <path
         d="m 82.680707,69.547615 h -0.971513 v -8.040827 h 0.971513 z"
         style="fill:none;stroke:#0000ff;stroke-width:0.265;stroke-miterlimit:4;stroke-dasharray:none;stroke-opacity:1"
         id="path1072" />
      <path
         d="M 89.284934,69.547615 H 88.31342 v -0.604612 q -0.418578,0.361734 -0.873329,0.563271 -0.454751,0.201537 -0.987017,0.201537 -1.033525,0 -1.643305,-0.795814 -0.604613,-0.795815 -0.604613,-2.206577 0,-0.733803 0.206706,-1.307409 0.211872,-0.573607 0.568438,-0.976682 0.351399,-0.392739 0.816486,-0.599444 0.470254,-0.206705 0.971513,-0.206705 0.454751,0 0.80615,0.09818 0.351399,0.09302 0.738971,0.294555 v -2.501131 h 0.971514 z M 88.31342,68.126518 v -3.312449 q -0.39274,-0.175699 -0.702797,-0.242879 -0.310058,-0.06718 -0.67696,-0.06718 -0.816485,0 -1.271236,0.568439 -0.454751,0.568439 -0.454751,1.6123 0,1.028358 0.351399,1.565791 0.351398,0.532265 1.126542,0.532265 0.41341,0 0.837156,-0.180867 0.423745,-0.186034 0.790647,-0.475421 z"
         style="fill:none;stroke:#0000ff;stroke-width:0.265;stroke-miterlimit:4;stroke-dasharray:none;stroke-opacity:1"
         id="path1074" />
    </g>
    <g
       id="g1106"
       transform="translate(0.57812481,-5.1989275)">
      <path
         id="rect160"
         style="fill:none;stroke:#000000;stroke-width:0.2;stroke-miterlimit:4;stroke-dasharray:none;stroke-opacity:1"
         d="m 114.8665,136.96167 v 6.0313 H 30.363396 v 37.76824 H 114.8665 v 7.00046 h 12.5229 v -50.8 z" />
      <g
         id="g893"
         transform="matrix(0.25702984,0,0,0.25703029,95.494821,135.53001)"
         style="stroke-width:3.89059;stroke-miterlimit:4;stroke-dasharray:none">
        <g
           id="g857"
           transform="translate(-31.999998,1.343176)"
           style="stroke-width:3.89059;stroke-miterlimit:4;stroke-dasharray:none">
          <g
             id="g860"
             style="stroke-width:3.89059;stroke-miterlimit:4;stroke-dasharray:none">
            <circle
               style="fill:none;fill-opacity:1;stroke:#0000fe;stroke-width:0.778119;stroke-miterlimit:4;stroke-dasharray:none;stroke-opacity:1"
               id="path20"
               cx="-54.223236"
               cy="103.03873"
               r="49.486359" />
          </g>
        </g>
        <g
           id="g854"
           inkscape:transform-center-x="-1.4924915"
           inkscape:transform-center-y="1.4924915"
           transform="translate(-31.999992)"
           style="stroke-width:3.89059;stroke-miterlimit:4;stroke-dasharray:none">
          <g
             id="g850"
             style="stroke-width:3.89059;stroke-miterlimit:4;stroke-dasharray:none">
            <rect
               style="fill:none;fill-opacity:1;stroke:#0000ff;stroke-width:0.778119;stroke-miterlimit:4;stroke-dasharray:none;stroke-opacity:1"
               id="rect847"
               width="79.576027"
               height="79.576027"
               x="-4.827311"
               y="72.329498"
               ry="3.3156657"
               transform="rotate(45)" />
          </g>
        </g>
        <g
           aria-label="Dómald"
           transform="matrix(0.6952035,-0.69520351,0.71921386,0.71921386,0,0)"
           id="text876"
           style="font-style:normal;font-weight:normal;font-size:12.0088px;line-height:1.25;font-family:sans-serif;fill:none;fill-opacity:1;fill-rule:nonzero;stroke:#0000ff;stroke-width:0.778119;stroke-miterlimit:4;stroke-dasharray:none;stroke-opacity:1"
           inkscape:transform-center-x="10.686877"
           inkscape:transform-center-y="13.379557">
          <path
             d="m -152.01708,64.921315 q 0,1.190325 -0.52187,2.157831 -0.516,0.967506 -1.37796,1.5011 -0.5981,0.369411 -1.33692,0.533594 -0.73296,0.164183 -1.93501,0.164183 h -2.20474 v -8.731007 h 2.18129 q 1.27828,0 2.02883,0.187637 0.75641,0.181774 1.27828,0.504276 0.89127,0.557049 1.38969,1.483509 0.49841,0.92646 0.49841,2.198877 z m -1.21378,-0.01759 q 0,-1.026143 -0.35769,-1.729783 -0.35768,-0.703641 -1.06718,-1.108234 -0.51601,-0.293184 -1.09651,-0.404594 -0.5805,-0.117273 -1.38969,-0.117273 h -1.09064 V 68.2812 h 1.09064 q 0.8385,0 1.46005,-0.123138 0.62742,-0.123137 1.14928,-0.457366 0.65087,-0.416321 0.97337,-1.096507 0.32837,-0.680185 0.32837,-1.700464 z"
             style="fill:none;fill-opacity:1;fill-rule:nonzero;stroke:#0000ff;stroke-width:0.778119;stroke-miterlimit:4;stroke-dasharray:none;stroke-opacity:1"
             id="path1077" />
          <path
             d="m -144.64645,66.006094 q 0,1.600782 -0.82091,2.527242 -0.82091,0.926461 -2.19888,0.926461 -1.38969,0 -2.2106,-0.926461 -0.81505,-0.92646 -0.81505,-2.527242 0,-1.600782 0.81505,-2.527243 0.82091,-0.932323 2.2106,-0.932323 1.37797,0 2.19888,0.932323 0.82091,0.926461 0.82091,2.527243 z m -1.13755,0 q 0,-1.272417 -0.49841,-1.888102 -0.49841,-0.621549 -1.38383,-0.621549 -0.89714,0 -1.39555,0.621549 -0.49255,0.615685 -0.49255,1.888102 0,1.231371 0.49841,1.870511 0.49841,0.633277 1.38969,0.633277 0.87955,0 1.37797,-0.627413 0.50427,-0.633277 0.50427,-1.876375 z m -0.0586,-6.555585 -1.60078,2.193013 h -0.87369 l 1.0496,-2.193013 z"
             style="fill:none;fill-opacity:1;fill-rule:nonzero;stroke:#0000ff;stroke-width:0.778119;stroke-miterlimit:4;stroke-dasharray:none;stroke-opacity:1"
             id="path1079" />
          <path
             d="m -133.38233,69.278023 h -1.10237 v -3.729295 q 0,-0.422185 -0.041,-0.815051 -0.0352,-0.392866 -0.15832,-0.627413 -0.13486,-0.252138 -0.387,-0.381138 -0.25214,-0.129001 -0.7271,-0.129001 -0.46323,0 -0.92646,0.234547 -0.46323,0.228683 -0.92646,0.586367 0.0176,0.134864 0.0293,0.316638 0.0117,0.17591 0.0117,0.351821 v 4.192525 h -1.10237 v -3.729295 q 0,-0.433912 -0.041,-0.820914 -0.0352,-0.392866 -0.15832,-0.627413 -0.13486,-0.252138 -0.387,-0.375275 -0.25214,-0.129001 -0.72709,-0.129001 -0.45151,0 -0.90887,0.222819 -0.45151,0.22282 -0.90301,0.568777 v 4.890302 h -1.10237 v -6.549721 h 1.10237 v 0.727095 q 0.516,-0.428048 1.02614,-0.668459 0.51601,-0.24041 1.09651,-0.24041 0.66846,0 1.13169,0.281456 0.46909,0.281456 0.69778,0.779868 0.66845,-0.562912 1.21964,-0.809186 0.55118,-0.252138 1.1786,-0.252138 1.07891,0 1.58905,0.656731 0.51601,0.650867 0.51601,1.823602 z"
             style="fill:none;fill-opacity:1;fill-rule:nonzero;stroke:#0000ff;stroke-width:0.778119;stroke-miterlimit:4;stroke-dasharray:none;stroke-opacity:1"
             id="path1081" />
          <path
             d="m -126.17002,69.278023 h -1.0965 v -0.697777 q -0.1466,0.09968 -0.39873,0.281456 -0.24628,0.17591 -0.48082,0.281456 -0.2756,0.134865 -0.63328,0.22282 -0.35768,0.09382 -0.83851,0.09382 -0.88541,0 -1.5011,-0.586368 -0.61568,-0.586367 -0.61568,-1.495236 0,-0.744686 0.31664,-1.202053 0.3225,-0.46323 0.91473,-0.727095 0.59809,-0.263865 1.4366,-0.357684 0.8385,-0.09382 1.80015,-0.140728 v -0.170046 q 0,-0.375275 -0.13487,-0.62155 -0.129,-0.246274 -0.37527,-0.387002 -0.23455,-0.134864 -0.56292,-0.181774 -0.32836,-0.04691 -0.68605,-0.04691 -0.43391,0 -0.9675,0.117273 -0.5336,0.11141 -1.10237,0.328366 h -0.0586 V 62.86903 q 0.3225,-0.08796 0.93233,-0.193502 0.60982,-0.105546 1.20205,-0.105546 0.69191,0 1.20205,0.117274 0.516,0.11141 0.89128,0.387002 0.36941,0.269729 0.56291,0.697777 0.1935,0.428048 0.1935,1.061325 z m -1.0965,-1.61251 v -1.823602 q -0.50428,0.02932 -1.19033,0.08796 -0.68018,0.05864 -1.07891,0.170047 -0.47496,0.134864 -0.76815,0.422184 -0.29318,0.281456 -0.29318,0.779868 0,0.562913 0.34009,0.850233 0.3401,0.281456 1.03787,0.281456 0.58051,0 1.06133,-0.222819 0.48082,-0.228684 0.89128,-0.545322 z"
             style="fill:none;fill-opacity:1;fill-rule:nonzero;stroke:#0000ff;stroke-width:0.778119;stroke-miterlimit:4;stroke-dasharray:none;stroke-opacity:1"
             id="path1083" />
          <path
             d="m -122.93327,69.278023 h -1.10237 V 60.15415 h 1.10237 z"
             style="fill:none;fill-opacity:1;fill-rule:nonzero;stroke:#0000ff;stroke-width:0.778119;stroke-miterlimit:4;stroke-dasharray:none;stroke-opacity:1"
             id="path1085" />
          <path
             d="m -115.4395,69.278023 h -1.10237 v -0.68605 q -0.47496,0.410457 -0.99096,0.63914 -0.516,0.228684 -1.11996,0.228684 -1.17274,0 -1.86465,-0.903006 -0.68605,-0.903005 -0.68605,-2.503788 0,-0.832641 0.23455,-1.483509 0.24041,-0.650867 0.645,-1.108234 0.39873,-0.445639 0.92646,-0.680185 0.5336,-0.234547 1.10237,-0.234547 0.51601,0 0.91474,0.111409 0.39872,0.105547 0.8385,0.33423 V 60.15415 h 1.10237 z m -1.10237,-1.61251 V 63.9069 q -0.44564,-0.199365 -0.79746,-0.275593 -0.35182,-0.07623 -0.76814,-0.07623 -0.92646,0 -1.44246,0.645004 -0.51601,0.645004 -0.51601,1.829466 0,1.16687 0.39873,1.776692 0.39873,0.603958 1.27828,0.603958 0.4691,0 0.94992,-0.205228 0.48082,-0.211092 0.89714,-0.539458 z"
             style="fill:none;fill-opacity:1;fill-rule:nonzero;stroke:#0000ff;stroke-width:0.778119;stroke-miterlimit:4;stroke-dasharray:none;stroke-opacity:1"
             id="path1087" />
        </g>
        <g
           id="g881"
           transform="translate(32.000002,24.000002)"
           style="stroke-width:3.89059;stroke-miterlimit:4;stroke-dasharray:none" />
      </g>
    </g>
  </g>
</svg>
